<?xml version="1.0" standalone="no"?>
<!DOCTYPE svg PUBLIC "-//W3C//DTD SVG 1.1//EN" "http://www.w3.org/Graphics/SVG/1.1/DTD/svg11.dtd" >
<svg xmlns="http://www.w3.org/2000/svg">
<metadata></metadata>
<defs>
<font id="food_craftregular" horiz-adv-x="2288" >
<font-face units-per-em="2048" ascent="1638" descent="-410" />
<missing-glyph horiz-adv-x="508" />
<glyph horiz-adv-x="0" />
<glyph unicode="&#xd;" horiz-adv-x="508" />
<glyph unicode=" "  horiz-adv-x="508" />
<glyph unicode="&#x09;" horiz-adv-x="508" />
<glyph unicode="&#xa0;" horiz-adv-x="508" />
<glyph unicode="A" horiz-adv-x="2605" d="M207 151q87 -151 262 -151h589q104 0 156 87q26 43 31 86v-2q9 155 15 271q6 120 6 189q0 31 -1 51q-3 44 -37 65q-132 82 -132 273q1 121 61 207q61 85 146 85t146 -86q60 -86 60 -207q-1 -91 -39 -166q-37 -72 -96 -107q-34 -20 -37 -65q-2 -25 -2 -69q0 -61 4 -157 q6 -118 15 -282q5 -43 31 -86q51 -87 156 -87h595q175 0 262 151q44 76 44 151.5t-44 150.5l-834 1444q-87 151 -262 151q-174 0 -261 -151l-834 -1444q-44 -76 -44 -151t44 -151z" />
<glyph unicode="B" horiz-adv-x="2292" d="M120 1809q0 -105 87 -157q44 -26 87 -31l-1 -1q156 -9 272 -15q120 -6 189 -6q31 0 52 1q45 3 66 37q82 133 272 133h3q121 0 207 -61t86 -147t-86 -146q-86 -61 -208 -61q-92 1 -168 39q-72 37 -107 96q-21 35 -66 38q-25 2 -69 2q-61 0 -158 -4q-120 -6 -284 -15 q-40 -5 -80 -27q-81 -45 -92 -133l6 -513q40 -106 149 -123q5 0 13 -1q8 0 12 -1q456 -38 539 -38q10 0 15 1q54 7 86 54q57 86 114 86h4l552 -26q22 -1 21 -26q0 -24 -22 -24l-466 10q-21 0 -21 -23q-1 -23 20 -24l463 -9q25 -1 24 -28q0 -27 -25 -26l-463 9q-21 0 -21 -23 q-1 -23 20 -23l463 -10q25 0 24 -27q0 -27 -25 -27l-463 9q-21 1 -21 -22q-1 -23 20 -24l466 -9q22 -1 21 -25q0 -25 -22 -25l-552 -4q-60 0 -115 91q-30 48 -84 57q-10 2 -51 2q-95 0 -357 -10h-1q-2 -1 -9 -1h-9q-226 -14 -295 -153l2 -149q0 -114 80 -195q80 -80 193 -80 h997q18 -1 37 -1q303 0 517 215q214 214 214 518q0 194 -95 361q-92 163 -250 261q76 95 76 301q0 174 -115 288q-105 104 -239 104h-1158q-113 0 -194 -79q-65 -64 -77 -155v-5z" />
<glyph unicode="C" horiz-adv-x="2282" d="M120 1024q0 -424 300 -724t724 -300q395 0 687 265q291 263 331 651q-49 36 -121 42q-146 9 -256 15q-116 5 -184 5q-34 0 -57 -1q-45 -3 -67 -37q-83 -133 -275 -133q-122 1 -208 62t-86 147t86 146q87 61 209 61q92 0 168 -39q72 -37 107 -96q21 -35 66 -39 q22 -1 58 -1q63 0 169 4q105 5 241 12q91 0 151 63q-39 390 -330 655q-293 266 -689 266q-424 0 -724 -300t-300 -724z" />
<glyph unicode="D" horiz-adv-x="2276" d="M120 282q0 -113 80 -193t193 -80h613q69 -9 134 -9q399 0 692 270q291 269 324 662q-48 34 -118 40q-146 9 -256 14q-120 6 -190 6q-31 0 -51 -1q-45 -3 -66 -37q-83 -133 -275 -133q-122 0 -208 61q-85 60 -85 145q1 88 86 149q86 60 208 60q92 0 168 -39 q72 -37 107 -96q21 -35 65 -38q24 -2 63 -2q63 0 165 5q102 4 241 12q85 0 144 57q-43 384 -332 644q-290 261 -682 261h-1v8h-746q-113 0 -193 -80t-80 -193v-1493z" />
<glyph unicode="E" d="M120 274q0 -113 80 -194q81 -80 194 -80h1500q113 0 194 80q80 81 80 194v90q0 157 -137 222q-75 35 -162 36h-1069h-9q-52 0 -71 22q-8 10 -8 21q0 17 19 38q84 91 392 146q105 19 192 19q182 0 279 -83q48 -40 56 -44q41 -21 117 -21h7q27 1 212 22q55 13 100 53 q78 67 82 190v98q-4 127 -88 195q-46 38 -99 48q-311 13 -418 13q-42 0 -53 -2q-54 -9 -84 -58q-54 -90 -114 -90h-1l-555 4q-22 0 -22 24q-1 25 21 25l468 10q21 0 21 24q-1 23 -22 22l-465 -9q-25 -1 -25 27q-1 27 24 27l465 10q21 0 21 24q-1 23 -22 22l-465 -9 q-25 -1 -25 27q-1 27 24 27l465 10q21 0 21 24q-1 23 -22 22l-468 -9q-22 -1 -22 24q-1 25 21 26l554 26h4q58 0 115 -86q32 -47 86 -54q5 -1 17 -1q71 0 380 25q97 10 162 55q101 67 101 200v68q0 113 -80 194q-81 80 -194 80h-1500q-113 0 -194 -80q-80 -81 -80 -194 v-1500z" />
<glyph unicode="F" horiz-adv-x="2287" d="M120 273q0 -14 2 -28q0 -1 2 -13q2 -15 2 -13q19 -95 94 -157q77 -62 176 -62h410h52q-4 0 10 1q150 5 211 143q33 75 34 162v403q266 -2 430 -1.5t226 1.5h54h68q87 1 171 66q102 81 105 210v54q-4 127 -83 182q-32 22 -94 34q-215 13 -377 22q-117 5 -185 5 q-34 0 -57 -1q-45 -3 -67 -37q-82 -133 -273 -133h-3q-122 0 -208 61q-87 61 -87 148q1 86 87 147q86 60 205 60h4q92 0 168 -39q73 -37 108 -96q21 -35 66 -38q26 -2 70 -2q61 0 158 4q155 7 370 20q80 9 130 58q68 68 68 205v135q0 113 -80 194q-80 80 -194 80h-1499 q-113 0 -194 -80q-80 -81 -80 -194v-1470v-31z" />
<glyph unicode="G" horiz-adv-x="2312" d="M120 1024q0 -424 300 -724t724 -300q2 0 29 1h744q114 0 194 80t80 194v472q-9 109 -76 162q-42 33 -97 39q-150 9 -259 15q-113 6 -180 6q-38 0 -62 -2q-45 -3 -66 -37q-84 -133 -276 -133q-123 0 -209 61q-86 62 -86 148t87 147q85 60 204 60h4q93 0 169 -39 q72 -37 107 -96q21 -35 66 -38q26 -2 70 -2q61 0 158 4q112 5 271 14q127 13 158 156q-65 351 -337 586q-275 238 -638 248q-29 2 -55 2q-424 0 -724 -300t-300 -724z" />
<glyph unicode="H" d="M120 274q0 -113 80 -194q81 -80 194 -80h488q233 0 242 193q-15 29 -45 47q-91 56 -91 115l4 555q1 22 25 23q25 0 25 -22l10 -468q0 -21 23 -20q24 0 23 21l-9 465q-1 25 26 26q28 0 28 -24l10 -466q0 -21 23 -20q24 0 23 21l-9 466q-1 24 26 25q28 0 28 -24l10 -466 q0 -21 23 -20q24 0 23 21l-9 468q-1 22 24 23q24 0 25 -22l27 -554q3 -60 -86 -119q-36 -24 -49 -63q7 -68 64 -118q74 -63 209 -63h389q113 0 194 80q80 81 80 194v1500q0 113 -80 194q-81 80 -194 80h-311q-40 -3 -95 -3h-28h-2q-151 0 -220 -128q-35 -66 -39 -131 q0 -5 3 -45q2 -45 37 -66q133 -83 133 -276q0 -123 -61 -209q-62 -86 -148 -86t-147 87q-61 86 -61 209q0 92 39 168q37 72 97 108q35 20 38 65q3 36 3 47q0 108 -71 179q-80 79 -222 79h-7h-48q-69 0 -121 2h-269q-113 0 -194 -80q-80 -81 -80 -194v-1500z" />
<glyph unicode="I" horiz-adv-x="1224" d="M120 265q0 -110 78 -187q77 -78 187 -78h453q110 0 188 78q77 77 77 187v1510q0 113 -80 193q-79 80 -192 80h-165q-7 -108 -11 -189q-5 -115 -5 -184q0 -34 1 -56q3 -45 37 -66q132 -82 132 -274q0 -121 -61 -207q-61 -85 -146 -85q-86 0 -146 86q-61 86 -61 207 q1 92 39 167q37 72 96 107q34 21 38 65q2 23 2 62q0 62 -5 165q-4 92 -10 202h-181q-110 0 -187 -78q-78 -77 -78 -187v-1518z" />
<glyph unicode="J" horiz-adv-x="2296" d="M128 274q0 -113 80 -194q80 -80 194 -80h1500q113 0 193 80q81 81 81 194v1500q0 113 -81 194q-80 80 -193 80q-116 0 -202 -43q-86 -56 -116 -205q-28 -440 -28 -539q0 -18 1 -25q8 -55 56 -85q90 -58 88 -117l-15 -555q-1 -22 -25 -22q-25 0 -25 22v468q0 21 -23 21 t-23 -21v-465q0 -25 -28 -25q-27 0 -27 25v465q0 21 -23 21t-23 -21v-465q0 -25 -28 -25q-27 0 -27 25v465q0 21 -23 21t-23 -21v-468q0 -22 -25 -22t-25 22l-15 555q-2 59 88 117q48 30 56 85q1 7 1 31q0 47 -5 159q-20 193 -22 197q-17 48 -67 48q-30 0 -73 -18 q-16 -17 -242 -255q-178 -188 -327 -343q-49 -51 -232 -233q-131 -130 -195 -203q-177 -200 -177 -334v-11z" />
<glyph unicode="K" horiz-adv-x="2324" d="M120 274q0 -113 80 -194q79 -80 192 -80h1462q175 0 262 150q44 75 44 150t-44 150q-168 262 -368 574q200 312 368 574q44 75 44 150t-44 150q-87 150 -262 150h-643q-159 -32 -200 -236q-28 -437 -28 -535q0 -18 1 -25q8 -55 56 -85q89 -57 87 -116l-15 -551 q0 -21 -25 -22q-24 0 -24 22v465q0 21 -23 21t-23 -21v-462q0 -25 -27 -25q-27 1 -28 25l1 462q0 21 -23 21t-23 -21l-1 -462q0 -24 -27 -25q-27 1 -27 25v462q0 21 -23 21t-23 -21v-464q0 -22 -24 -22q-25 0 -25 22l-15 550q-2 59 88 116q47 31 55 85q1 7 1 27 q0 94 -23 472q-19 132 -62 196q-61 91 -190 101h-229q-113 0 -192 -80q-80 -81 -80 -194v-1500z" />
<glyph unicode="L" d="M120 274q0 -113 80 -194q81 -80 194 -80h1499q114 0 194 80q81 81 81 194q0 180 -99 243q-55 36 -210 51q-230 15 -403 24q-112 6 -180 6q-38 0 -62 -2q-45 -2 -66 -37q-83 -133 -276 -133q-123 0 -209 61q-86 62 -86 148t87 147q86 61 209 61q92 -1 168 -39 q72 -37 108 -97q20 -35 65 -38q26 -2 70 -2q62 0 159 4q-2 0 11 1q200 24 265 58q59 31 59 80q0 51 -66 122q-433 411 -537 511q-51 50 -233 233q-130 130 -203 195q-202 177 -335 177h-10q-113 0 -194 -81q-80 -80 -80 -194v-1499z" />
<glyph unicode="M" horiz-adv-x="4008" d="M208 151q88 -151 264 -151h590q106 0 158 87q26 44 31 88v-1q28 393 28 474q0 13 -1 18q-6 44 -44 68q-72 47 -70 94l15 442q0 18 20 18t19 -18l-2 -373q0 -17 18 -17q19 0 19 17l3 371q0 20 21 19q22 0 22 -19l-2 -372q0 -16 18 -17q19 0 19 17l2 371q0 20 22 20t22 -20 l-3 -371q0 -17 19 -17q18 0 18 17l3 373q0 18 19 17q20 0 20 -17l10 -443q1 -47 -71 -93q-39 -24 -45 -67q-1 -7 -1 -29q0 -95 21 -467q9 -54 39 -96q52 -74 149 -74h888q105 0 158 87q26 44 31 88v-2q9 153 16 273q5 117 5 186q0 35 -1 57q-3 45 -37 66q-133 82 -133 273 q0 125 61 212q61 86 148 86q86 0 147 -87q60 -86 60 -205q0 -97 -39 -172q-37 -73 -96 -108q-35 -21 -38 -66q-2 -25 -2 -69q0 -61 4 -159q6 -121 15 -285q5 -44 31 -88q52 -87 158 -87h602q176 0 264 151q44 76 44 151.5t-44 150.5l-843 1444q-88 151 -264 151t-264 -151 l-425 -729l-425 729q-88 151 -264 151t-264 -151l-843 -1444q-44 -76 -44 -151t44 -151z" />
<glyph unicode="N" d="M120 274q0 -113 80 -194q81 -80 194 -80h795h6q116 0 153 71q13 26 13 55q0 53 -44 117q-223 280 -250 302q-34 28 -77 28q-11 0 -22 -2q-30 -5 -54 -5q-62 0 -90 33l-359 422q-15 17 3 33q19 17 34 0l313 -347q14 -16 31 -1q17 16 3 32l-311 346q-17 18 4 36q20 18 36 0 l312 -346q14 -15 31 0q17 16 3 31l-311 346q-17 19 4 37q20 18 36 0l312 -346q14 -16 31 0q17 15 3 31l-313 348q-14 16 4 33q18 16 33 0l382 -402q25 -25 25 -72q0 -32 -12 -74q-5 -18 -5 -35q0 -35 21 -66q27 -42 462 -466q7 -6 19 -18q114 -105 242 -121h37q113 0 194 80 q80 81 80 194v1500q0 113 -80 194q-81 80 -194 80h-657q-71 0 -111 -64q-17 -29 -17 -62q0 -63 60 -143q14 -18 20 -25q22 -27 33 -43q531 -667 576 -720q31 -36 31 -63q0 -4 -1 -7q-6 -29 -50 -26q-113 8 -331 199q-226 199 -226 370v7q0 29 0.5 46t-0.5 21q-9 43 -57 100 q-18 22 -157 162q-21 18 -52 52q-17 17 -52 53q-147 133 -302 143h-207q-113 0 -194 -80q-80 -81 -80 -194v-1500z" />
<glyph unicode="O" horiz-adv-x="2292" d="M120 1022q0 -402 273 -696q271 -293 667 -326q37 49 43 123q9 147 15 257q6 112 6 180q0 38 -2 62q-2 45 -37 66q-133 83 -133 276q0 122 61 209q62 86 148 86q86 -1 147 -87q60 -86 60 -205q0 -97 -39 -172q-37 -72 -96 -108q-35 -20 -38 -66q-2 -25 -2 -69 q0 -61 4 -159q5 -103 13 -243q0 -87 60 -146q383 46 642 335q260 292 260 683q0 425 -301 726q-300 300 -725 300t-726 -300q-300 -301 -300 -726z" />
<glyph unicode="P" horiz-adv-x="2289" d="M120 272q0 -13 2 -27q0 -1 2 -14l2 -12q19 -95 94 -157q76 -62 175 -62h410h52q-3 0 10 1q150 5 208 142q29 70 30 160v330q0 14 1 92q409 1 409 2q271 2 463 195q191 193 191 465q0 274 -194 467q-193 194 -467 194q-25 0 -54 -2h-1060q-114 0 -194 -81 q-80 -80 -80 -193v-130q0 -105 89 -156q45 -25 90 -29l-2 -1q153 -9 273 -15t190 -6q31 0 52 1q45 3 66 37q82 133 273 133h3q122 0 208 -61t86 -147t-87 -147q-86 -61 -208 -61q-92 0 -168 39q-73 37 -108 97q-21 34 -66 38q-23 2 -62 2q-62 0 -165 -5q-123 -5 -286 -14 q-41 -6 -90 -37q-88 -57 -88 -162v-844v-32z" />
<glyph unicode="Q" d="M419 316q219 -218 636 -283q219 -33 662 -33q80 0 167 1q73 1 99 69q9 23 9 44q0 41 -35 74q-381 365 -393 378q-115 127 -166 172q-25 22 -54 22q-9 0 -18 -2q-31 -7 -62 -7q-118 0 -224 106q-86 86 -103 189q-4 24 -4 45q0 72 46 118t118 46q21 0 45 -4 q103 -17 189 -103q64 -64 90 -144q15 -46 15 -88q0 -28 -7 -55q-2 -9 -2 -18q0 -29 22 -55q39 -46 161 -157q75 -68 178 -160q60 -60 143 -60h3q214 274 214 617q0 32 -2 65q-22 386 -296 659q-297 295 -715 295h-3q-419 -1 -716 -298q-295 -296 -295 -714q0 -422 298 -719z " />
<glyph unicode="R" horiz-adv-x="2321" d="M120 273q0 -13 2 -27q0 -1 2 -14l2 -12q19 -95 94 -157t173 -62h37h22q16 -1 29 -1h323q8 1 18 1q104 0 156 87q26 43 31 86l1 -1q9 155 15 271q6 111 6 179q0 37 -2 61q-2 45 -36 66q-133 82 -133 274q1 121 61 206q61 86 147 86q85 0 146 -86q60 -86 60 -207 q-1 -92 -39 -167q-37 -72 -96 -107q-34 -21 -38 -65q-2 -23 -2 -62q0 -62 5 -165q5 -115 14 -283q5 -43 31 -86q52 -87 157 -87q10 0 18 -1h528q174 0 262 150q44 74 43.5 149t-43.5 150l-234 401q127 92 200 231q75 143 75 307q0 273 -192 467q-193 193 -464 193 q-25 0 -54 -2h-1053q-113 0 -192 -81q-80 -80 -80 -193v-1467v-32z" />
<glyph unicode="S" horiz-adv-x="1983" d="M120 1244q8 -224 172 -298q35 -16 56 -29q405 -173 442 -181q11 -2 21 -2q34 0 63 23q54 41 94 41q13 0 25 -4l441 -171q18 -7 11 -27q-7 -19 -25 -13l-376 134q-17 6 -23 -12q-7 -19 10 -25l373 -134q20 -7 12 -29q-7 -21 -27 -14l-374 133q-17 6 -23 -13q-7 -18 10 -24 l374 -134q19 -7 11 -29q-7 -21 -27 -14l-374 133q-16 6 -23 -13q-7 -18 10 -24l376 -134q17 -7 10 -27q-7 -19 -25 -13l-449 146q-48 16 -69 105q-11 47 -52 69q-23 13 -265 84q-34 8 -84 25q-40 11 -84 24q-58 14 -100 14q-109 0 -109 -95q3 -34 8 -63q1 -7 5 -25 q3 -14 4 -22q64 -262 301 -433q240 -173 551 -173q361 0 616 224q256 225 256 542v24q-10 149 -107 255q-52 57 -108 84q-189 88 -215 98q-46 17 -80 17q-9 0 -17 -1q-7 -1 -53 -19q-41 -16 -91 -16q-116 0 -277 89q-216 119 -255 208q-15 35 7 47q9 6 23 6q18 0 42 -10 q71 -27 881 -300q48 -14 95 -14l27 1q123 9 123 124q-8 70 -31 140q-4 9 -5 14q-85 236 -311 384q-231 151 -520 151q-361 0 -616 -224q-255 -225 -255 -542v-38z" />
<glyph unicode="T" horiz-adv-x="2286" d="M120 1700q0 -109 78 -187q77 -78 187 -78h278v-1164q0 -105 71 -183q69 -77 172 -88q99 5 149 89q24 43 29 84v-1q28 389 28 470q0 13 -1 18q-6 43 -44 68q-71 46 -69 93l15 438q0 18 20 18q19 -1 19 -18l-2 -370q-1 -17 18 -17q18 0 18 17l3 368q0 19 21 19q22 0 22 -20 l-2 -368q-1 -16 18 -16q18 0 18 16l3 368q0 20 21 20q22 -1 22 -20l-3 -368q0 -17 19 -17q18 0 18 17l3 370q0 17 19 17t20 -18l9 -438q1 -47 -70 -92q-38 -24 -45 -67q-1 -7 -1 -29q0 -94 21 -463q9 -52 38 -93q51 -73 144 -75q94 9 161 76q77 78 77 188v1171h271 q113 0 193 80t80 193v75q0 110 -78 187q-77 78 -187 78h-1516q-110 0 -187 -78q-78 -77 -78 -187v-83z" />
<glyph unicode="U" d="M120 1024q0 -424 300 -724t724 -300t724 300t300 724q0 4 -1 29v721q0 113 -80 194q-80 80 -194 80h-472q-118 -12 -175 -111q-35 -60 -41 -135q-1 -3 -1 -7v-7q-19 -298 -19 -375q0 -17 1 -23q8 -54 56 -85q90 -58 88 -117l-17 -554q-1 -22 -25 -22q-25 0 -25 22l2 468 q0 21 -23 21q-24 0 -24 -21l-1 -465q0 -25 -28 -25q-27 0 -27 25l2 465q0 21 -23 21q-24 0 -24 -21l-1 -465q0 -25 -28 -25q-27 0 -27 25l2 465q0 21 -23 21q-24 0 -24 -21l-1 -467q0 -22 -25 -22q-24 0 -25 22l-13 554q-2 60 89 117q47 30 56 85q1 6 1 24q0 71 -13 323 q-1 3 -1 8q-1 29 -5 87q-24 199 -227 215h-457q-114 0 -194 -80q-80 -81 -80 -194v-721q-1 -25 -1 -29z" />
<glyph unicode="V" horiz-adv-x="2627" d="M208 1595l841 -1444q88 -151 264 -151t264 151l841 1444q44 76 44 151.5t-44 150.5q-87 151 -263 151h-647q-86 -13 -130 -94q-21 -40 -26 -78v2q-9 -153 -16 -273q-5 -116 -5 -185q0 -34 1 -57q3 -45 37 -66q133 -83 133 -276q0 -122 -61 -208q-60 -86 -146 -86h-2 q-86 0 -147 86q-60 87 -60 209q0 92 39 168q37 72 96 108q35 20 39 65q1 23 1 59q0 64 -4 169q-6 124 -15 285q-4 38 -26 78q-43 81 -129 94h-615q-176 0 -264 -151q-44 -76 -44 -151t44 -151z" />
<glyph unicode="W" horiz-adv-x="4034" d="M209 1596l848 -1444q88 -151 266 -151q177 0 266 151l427 728l428 -728q90 -152 266 -152q177 0 266 152l848 1444q44 75 44 150.5t-44 150.5q-88 151 -265 151h-594q-107 0 -159 -88q-26 -44 -31 -88l-1 1q-28 -396 -28 -478q0 -13 1 -18q7 -43 45 -68q72 -47 70 -95 l-15 -445q0 -18 -20 -18q-20 1 -20 18l3 376q0 17 -19 17t-19 -17l-2 -373q0 -20 -22 -20t-22 20l2 374q1 17 -18 17t-19 -17l-2 -374q0 -20 -22 -20q-22 1 -22 20l2 374q0 17 -18 17q-19 0 -19 -17l-2 -375q-1 -18 -20 -18q-20 0 -20 18l-10 445q-1 48 72 94q38 24 45 68 q1 7 1 28q0 94 -22 471q-9 54 -39 96q-52 75 -150 75h-893q-107 0 -159 -88q-26 -44 -31 -88l-1 2q-9 -158 -15 -275q-6 -122 -6 -192q0 -31 1 -52q3 -46 37 -67q134 -83 134 -275q0 -126 -61 -213q-62 -87 -149 -87q-87 1 -148 88t-61 210q0 93 39 170q38 72 97 108 q36 21 39 66q2 24 2 63q0 63 -5 167q-5 121 -14 287q-6 44 -32 88q-52 88 -159 88h-606q-177 0 -265 -151q-44 -76 -44 -151t44 -150z" />
<glyph unicode="X" horiz-adv-x="2620" d="M208 150q87 -150 263 -150h809q69 20 85 78q5 17 5 37q0 67 -57 163q-476 777 -518 841q-23 35 -23 60q0 7 2 13q9 28 52 19q111 -21 303 -236q181 -203 181 -361q0 -20 -3 -39q-7 -51 -7 -63q0 -42 43 -109q16 -25 142 -188q143 -175 339 -215h325q176 0 263 150 q44 75 44 150t-44 150q-128 232 -325 570q195 332 325 578q44 75 44 150t-44 150q-87 150 -263 150h-687q-86 -8 -116 -64q-13 -25 -13 -57q0 -67 57 -165q476 -777 517 -840q23 -35 23 -60q0 -7 -2 -13q-8 -28 -52 -20q-111 22 -303 237q-181 203 -181 361q0 20 3 39 q8 51 8 64q0 42 -44 108q-15 24 -142 187q-163 202 -388 223h-358q-176 0 -263 -150q-44 -75 -44 -150t44 -150q129 -232 325 -570q-195 -332 -325 -578q-44 -75 -44 -150t44 -150z" />
<glyph unicode="Y" horiz-adv-x="2575" d="M167 1748v-7q0 -79 41 -150l119 -205q100 -175 206 -358q-195 -332 -325 -578q-44 -75 -44 -150t44 -150q87 -150 263 -150l815 1q12 -1 24 -1q72 0 137 32q80 40 126 119l839 1440q41 71 41 150v7q0 121 -85 209q-89 91 -219 91h-52q-212 -17 -380 -213q-26 -34 -46 -59 q-173 -222 -192 -251q-40 -62 -44 -107q0 -8 8 -65q3 -19 3 -40q0 -158 -181 -360q-192 -216 -303 -237q-43 -8 -52 19q-2 6 -2 14q0 25 23 60q50 75 576 934l-3 -2q72 114 72 188q0 35 -16 61q-36 58 -130 58h-959q-130 0 -219 -91q-85 -88 -85 -209z" />
<glyph unicode="Z" horiz-adv-x="2327" d="M151 984q9 -77 49 -117q25 -24 57 -24q74 0 188 128q125 163 137 186q13 26 13 52q0 24 -11 49q-22 53 -22 92q0 33 16 55l329 447q13 18 33 4q21 -14 8 -32l-267 -385q-12 -17 7 -30q19 -14 31 4l266 382q14 20 36 5q23 -16 9 -36l-266 -383q-12 -17 7 -30t31 4l266 382 q14 21 36 5q23 -16 9 -36l-266 -382q-12 -17 7 -31q19 -13 31 4l267 385q13 18 33 4t8 -33l-304 -464q-30 -46 -124 -46h-15h-5q-53 0 -90 -38q-39 -42 -400 -643q-73 -139 -73 -240q0 -85 52 -144q80 -78 192 -78h1499q114 0 194 80q80 81 80 194v972q-1 72 -28 95 q-11 9 -25 9q-46 0 -128 -102q-109 -140 -123 -162q-44 -67 -44 -108q0 -13 8 -65q3 -19 3 -39q0 -158 -182 -362q-193 -216 -304 -238q-44 -8 -53 20q-2 6 -2 12q0 24 24 61q78 119 703 1144h-1q1 1 2 3l3 3q56 93 100 166q32 73 32 136q0 46 -18 86q-78 143 -241 143 h-1499q-114 0 -194 -80q-81 -81 -81 -194v-790z" />
<glyph unicode="a" horiz-adv-x="2605" d="M207 151q87 -151 262 -151h589q104 0 156 87q26 43 31 86v-2q9 155 15 271q6 120 6 189q0 31 -1 51q-3 44 -37 65q-132 82 -132 273q1 121 61 207q61 85 146 85t146 -86q60 -86 60 -207q-1 -91 -39 -166q-37 -72 -96 -107q-34 -20 -37 -65q-2 -25 -2 -69q0 -61 4 -157 q6 -118 15 -282q5 -43 31 -86q51 -87 156 -87h595q175 0 262 151q44 76 44 151.5t-44 150.5l-834 1444q-87 151 -262 151q-174 0 -261 -151l-834 -1444q-44 -76 -44 -151t44 -151z" />
<glyph unicode="b" horiz-adv-x="2292" d="M120 1809q0 -105 87 -157q44 -26 87 -31l-1 -1q156 -9 272 -15q120 -6 189 -6q31 0 52 1q45 3 66 37q82 133 272 133h3q121 0 207 -61t86 -147t-86 -146q-86 -61 -208 -61q-92 1 -168 39q-72 37 -107 96q-21 35 -66 38q-25 2 -69 2q-61 0 -158 -4q-120 -6 -284 -15 q-40 -5 -80 -27q-81 -45 -92 -133l6 -513q40 -106 149 -123q5 0 13 -1q8 0 12 -1q456 -38 539 -38q10 0 15 1q54 7 86 54q57 86 114 86h4l552 -26q22 -1 21 -26q0 -24 -22 -24l-466 10q-21 0 -21 -23q-1 -23 20 -24l463 -9q25 -1 24 -28q0 -27 -25 -26l-463 9q-21 0 -21 -23 q-1 -23 20 -23l463 -10q25 0 24 -27q0 -27 -25 -27l-463 9q-21 1 -21 -22q-1 -23 20 -24l466 -9q22 -1 21 -25q0 -25 -22 -25l-552 -4q-60 0 -115 91q-30 48 -84 57q-10 2 -51 2q-95 0 -357 -10h-1q-2 -1 -9 -1h-9q-226 -14 -295 -153l2 -149q0 -114 80 -195q80 -80 193 -80 h997q18 -1 37 -1q303 0 517 215q214 214 214 518q0 194 -95 361q-92 163 -250 261q76 95 76 301q0 174 -115 288q-105 104 -239 104h-1158q-113 0 -194 -79q-65 -64 -77 -155v-5z" />
<glyph unicode="c" horiz-adv-x="2282" d="M120 1024q0 -424 300 -724t724 -300q395 0 687 265q291 263 331 651q-49 36 -121 42q-146 9 -256 15q-116 5 -184 5q-34 0 -57 -1q-45 -3 -67 -37q-83 -133 -275 -133q-122 1 -208 62t-86 147t86 146q87 61 209 61q92 0 168 -39q72 -37 107 -96q21 -35 66 -39 q22 -1 58 -1q63 0 169 4q105 5 241 12q91 0 151 63q-39 390 -330 655q-293 266 -689 266q-424 0 -724 -300t-300 -724z" />
<glyph unicode="d" horiz-adv-x="2276" d="M120 282q0 -113 80 -193t193 -80h613q69 -9 134 -9q399 0 692 270q291 269 324 662q-48 34 -118 40q-146 9 -256 14q-120 6 -190 6q-31 0 -51 -1q-45 -3 -66 -37q-83 -133 -275 -133q-122 0 -208 61q-85 60 -85 145q1 88 86 149q86 60 208 60q92 0 168 -39 q72 -37 107 -96q21 -35 65 -38q24 -2 63 -2q63 0 165 5q102 4 241 12q85 0 144 57q-43 384 -332 644q-290 261 -682 261h-1v8h-746q-113 0 -193 -80t-80 -193v-1493z" />
<glyph unicode="e" d="M120 274q0 -113 80 -194q81 -80 194 -80h1500q113 0 194 80q80 81 80 194v90q0 157 -137 222q-75 35 -162 36h-1069h-9q-52 0 -71 22q-8 10 -8 21q0 17 19 38q84 91 392 146q105 19 192 19q182 0 279 -83q48 -40 56 -44q41 -21 117 -21h7q27 1 212 22q55 13 100 53 q78 67 82 190v98q-4 127 -88 195q-46 38 -99 48q-311 13 -418 13q-42 0 -53 -2q-54 -9 -84 -58q-54 -90 -114 -90h-1l-555 4q-22 0 -22 24q-1 25 21 25l468 10q21 0 21 24q-1 23 -22 22l-465 -9q-25 -1 -25 27q-1 27 24 27l465 10q21 0 21 24q-1 23 -22 22l-465 -9 q-25 -1 -25 27q-1 27 24 27l465 10q21 0 21 24q-1 23 -22 22l-468 -9q-22 -1 -22 24q-1 25 21 26l554 26h4q58 0 115 -86q32 -47 86 -54q5 -1 17 -1q71 0 380 25q97 10 162 55q101 67 101 200v68q0 113 -80 194q-81 80 -194 80h-1500q-113 0 -194 -80q-80 -81 -80 -194 v-1500z" />
<glyph unicode="f" horiz-adv-x="2287" d="M120 273q0 -14 2 -28q0 -1 2 -13q2 -15 2 -13q19 -95 94 -157q77 -62 176 -62h410h52q-4 0 10 1q150 5 211 143q33 75 34 162v403q266 -1 430 -1t226 1h54h68q87 1 171 66q102 81 105 210v54q-4 127 -83 182q-32 22 -94 34q-215 13 -377 22q-117 5 -185 5q-35 0 -57 -1 q-45 -3 -67 -37q-82 -133 -273 -133h-3q-122 0 -208 61q-87 61 -87 148q1 86 87 147q86 60 205 60h4q92 0 168 -39q73 -37 108 -96q21 -35 66 -38q26 -2 70 -2q61 0 158 4q155 7 370 20q80 9 130 58q68 68 68 205v135q0 113 -80 194q-80 80 -194 80h-1499q-113 0 -194 -80 q-80 -81 -80 -194v-1470v-31z" />
<glyph unicode="g" horiz-adv-x="2312" d="M120 1024q0 -424 300 -724t724 -300q2 0 29 1h744q114 0 194 80t80 194v472q-9 109 -76 162q-42 33 -97 39q-150 9 -259 15q-113 6 -180 6q-38 0 -62 -2q-45 -3 -66 -37q-84 -133 -276 -133q-123 0 -209 61q-86 62 -86 148t87 147q85 60 204 60h4q93 0 169 -39 q72 -37 107 -96q21 -35 66 -38q26 -2 70 -2q61 0 158 4q112 5 271 14q127 13 158 156q-65 351 -337 586q-275 238 -638 248q-29 2 -55 2q-424 0 -724 -300t-300 -724z" />
<glyph unicode="h" d="M120 274q0 -113 80 -194q81 -80 194 -80h488q233 0 242 193q-15 29 -45 47q-91 56 -91 115l4 555q1 22 25 23q25 0 25 -22l10 -468q0 -21 23 -20q24 0 23 21l-9 465q-1 25 26 26q28 0 28 -24l10 -466q0 -21 23 -20q24 0 23 21l-9 466q-1 24 26 25q28 0 28 -24l10 -466 q0 -21 23 -20q24 0 23 21l-9 468q-1 22 24 23q24 0 25 -22l27 -554q3 -60 -86 -119q-36 -24 -49 -63q7 -68 64 -118q74 -63 209 -63h389q113 0 194 80q80 81 80 194v1500q0 113 -80 194q-81 80 -194 80h-311q-40 -3 -95 -3h-28h-2q-151 0 -220 -128q-35 -66 -39 -131 q0 -5 3 -45q2 -45 37 -66q133 -83 133 -276q0 -123 -61 -209q-62 -86 -148 -86t-147 87q-61 86 -61 209q0 92 39 168q37 72 97 108q35 20 38 65q3 36 3 47q0 108 -71 179q-80 79 -222 79h-7h-48q-69 0 -121 2h-269q-113 0 -194 -80q-80 -81 -80 -194v-1500z" />
<glyph unicode="i" horiz-adv-x="1224" d="M120 265q0 -110 78 -187q77 -78 187 -78h453q110 0 188 78q77 77 77 187v1510q0 113 -80 193q-79 80 -192 80h-165q-7 -108 -11 -189q-5 -115 -5 -184q0 -34 1 -56q3 -45 37 -66q132 -82 132 -274q0 -121 -61 -207q-61 -85 -146 -85q-86 0 -146 86q-61 86 -61 207 q1 92 39 167q37 72 96 107q34 21 38 65q2 23 2 62q0 62 -5 165q-4 92 -10 202h-181q-110 0 -187 -78q-78 -77 -78 -187v-1518z" />
<glyph unicode="j" horiz-adv-x="2296" d="M128 274q0 -113 80 -194q80 -80 194 -80h1500q113 0 193 80q81 81 81 194v1500q0 113 -81 194q-80 80 -193 80q-116 0 -202 -43q-86 -56 -116 -205q-28 -440 -28 -539q0 -18 1 -25q8 -55 56 -85q90 -58 88 -117l-15 -555q-1 -22 -25 -22q-25 0 -25 22v468q0 21 -23 21 t-23 -21v-465q0 -25 -28 -25q-27 0 -27 25v465q0 21 -23 21t-23 -21v-465q0 -25 -28 -25q-27 0 -27 25v465q0 21 -23 21t-23 -21v-468q0 -22 -25 -22t-25 22l-15 555q-2 59 88 117q48 30 56 85q1 7 1 31q0 47 -5 159q-20 193 -22 197q-17 48 -67 48q-30 0 -73 -18 q-16 -17 -242 -255q-178 -188 -327 -343q-49 -51 -232 -233q-131 -130 -195 -203q-177 -200 -177 -334v-11z" />
<glyph unicode="k" horiz-adv-x="2324" d="M120 274q0 -113 80 -194q79 -80 192 -80h1462q175 0 262 150q44 75 44 150t-44 150q-168 262 -368 574q200 312 368 574q44 75 44 150t-44 150q-87 150 -262 150h-643q-159 -32 -200 -236q-28 -437 -28 -535q0 -18 1 -25q8 -55 56 -85q89 -57 87 -116l-15 -551 q0 -21 -25 -22q-24 0 -24 22v465q0 21 -23 21t-23 -21v-462q0 -25 -27 -25q-27 1 -28 25l1 462q0 21 -23 21t-23 -21l-1 -462q0 -24 -27 -25q-27 1 -27 25v462q0 21 -23 21t-23 -21v-464q0 -22 -24 -22q-25 0 -25 22l-15 550q-2 59 88 116q47 31 55 85q1 7 1 27 q0 94 -23 472q-19 132 -62 196q-61 91 -190 101h-229q-113 0 -192 -80q-80 -81 -80 -194v-1500z" />
<glyph unicode="l" d="M120 274q0 -113 80 -194q81 -80 194 -80h1499q114 0 194 80q81 81 81 194q0 180 -99 243q-55 36 -210 51q-230 15 -403 24q-112 6 -180 6q-38 0 -62 -2q-45 -2 -66 -37q-83 -133 -276 -133q-123 0 -209 61q-86 62 -86 148t87 147q86 61 209 61q92 -1 168 -39 q72 -37 108 -97q20 -35 65 -38q26 -2 70 -2q62 0 159 4q-2 0 11 1q200 24 265 58q59 31 59 80q0 51 -66 122q-433 411 -537 511q-51 50 -233 233q-130 130 -203 195q-202 177 -335 177h-10q-113 0 -194 -81q-80 -80 -80 -194v-1499z" />
<glyph unicode="m" horiz-adv-x="4008" d="M208 151q88 -151 264 -151h590q106 0 158 87q26 44 31 88v-1q28 393 28 474q0 13 -1 18q-6 44 -44 68q-72 47 -70 94l15 442q0 18 20 18t19 -18l-2 -373q0 -17 18 -17q19 0 19 17l3 371q0 20 21 19q22 0 22 -19l-2 -372q0 -16 18 -17q19 0 19 17l2 371q0 20 22 20t22 -20 l-3 -371q0 -17 19 -17q18 0 18 17l3 373q0 18 19 17q20 0 20 -17l10 -443q1 -47 -71 -93q-39 -24 -45 -67q-1 -7 -1 -29q0 -95 21 -467q9 -54 39 -96q52 -74 149 -74h888q105 0 158 87q26 44 31 88v-2q9 153 16 273q5 117 5 186q0 35 -1 57q-3 45 -37 66q-133 82 -133 273 q0 125 61 212q61 86 148 86q86 0 147 -87q60 -86 60 -205q0 -97 -39 -172q-37 -73 -96 -108q-35 -21 -38 -66q-2 -25 -2 -69q0 -61 4 -159q6 -121 15 -285q5 -44 31 -88q52 -87 158 -87h602q176 0 264 151q44 76 44 151.5t-44 150.5l-843 1444q-88 151 -264 151t-264 -151 l-425 -729l-425 729q-88 151 -264 151t-264 -151l-843 -1444q-44 -76 -44 -151t44 -151z" />
<glyph unicode="n" d="M120 274q0 -113 80 -194q81 -80 194 -80h795h6q116 0 153 71q13 26 13 55q0 53 -44 117q-223 280 -250 302q-34 28 -77 28q-11 0 -22 -2q-30 -5 -54 -5q-62 0 -90 33l-359 422q-15 17 3 33q19 17 34 0l313 -347q14 -16 31 -1q17 16 3 32l-311 346q-17 18 4 36q20 18 36 0 l312 -346q14 -15 31 0q17 16 3 31l-311 346q-17 19 4 37q20 18 36 0l312 -346q14 -16 31 0q17 15 3 31l-313 348q-14 16 4 33q18 16 33 0l382 -402q25 -25 25 -72q0 -32 -12 -74q-5 -18 -5 -35q0 -35 21 -66q27 -42 462 -466q7 -6 19 -18q114 -105 242 -121h37q113 0 194 80 q80 81 80 194v1500q0 113 -80 194q-81 80 -194 80h-657q-71 0 -111 -64q-17 -29 -17 -62q0 -63 60 -143q14 -18 20 -25q22 -27 33 -43q531 -667 576 -720q31 -36 31 -63q0 -4 -1 -7q-6 -29 -50 -26q-113 8 -331 199q-226 199 -226 370v7q0 29 0.5 46t-0.5 21q-9 43 -57 100 q-18 22 -157 162q-21 18 -52 52q-17 17 -52 53q-147 133 -302 143h-207q-113 0 -194 -80q-80 -81 -80 -194v-1500z" />
<glyph unicode="o" horiz-adv-x="2292" d="M120 1022q0 -402 273 -696q271 -293 667 -326q37 49 43 123q9 147 15 257q6 112 6 180q0 38 -2 62q-2 45 -37 66q-133 83 -133 276q0 122 61 209q62 86 148 86q86 -1 147 -87q60 -86 60 -205q0 -97 -39 -172q-37 -72 -96 -108q-35 -20 -38 -66q-2 -25 -2 -69 q0 -61 4 -159q5 -103 13 -243q0 -87 60 -146q383 46 642 335q260 292 260 683q0 425 -301 726q-300 300 -725 300t-726 -300q-300 -301 -300 -726z" />
<glyph unicode="p" horiz-adv-x="2289" d="M120 272q0 -13 2 -27q0 -1 2 -14l2 -12q19 -95 94 -157q76 -62 175 -62h410h52q-3 0 10 1q150 5 208 142q29 70 30 160v330q0 14 1 92q409 1 409 2q271 2 463 195q191 193 191 465q0 274 -194 467q-193 194 -467 194q-25 0 -54 -2h-1060q-114 0 -194 -81 q-80 -80 -80 -193v-130q0 -105 89 -156q45 -25 90 -29l-2 -1q153 -9 273 -15t190 -6q31 0 52 1q45 3 66 37q82 133 273 133h3q122 0 208 -61t86 -147t-87 -147q-86 -61 -208 -61q-92 0 -168 39q-73 37 -108 97q-21 34 -66 38q-23 2 -62 2q-63 0 -165 -5q-123 -5 -286 -14 q-41 -6 -90 -37q-88 -57 -88 -162v-844v-32z" />
<glyph unicode="q" d="M419 316q219 -218 636 -283q219 -33 662 -33q80 0 167 1q73 1 99 69q9 23 9 44q0 41 -35 74q-381 365 -393 378q-115 127 -166 172q-25 22 -54 22q-9 0 -18 -2q-31 -7 -62 -7q-118 0 -224 106q-86 86 -103 189q-4 24 -4 45q0 72 46 118t118 46q21 0 45 -4 q103 -17 189 -103q64 -64 90 -144q15 -46 15 -88q0 -28 -7 -55q-2 -9 -2 -18q0 -29 22 -55q39 -46 161 -157q75 -68 178 -160q60 -60 143 -60h3q214 274 214 617q0 32 -2 65q-22 386 -296 659q-297 295 -715 295h-3q-419 -1 -716 -298q-295 -296 -295 -714q0 -422 298 -719z " />
<glyph unicode="r" horiz-adv-x="2321" d="M120 273q0 -13 2 -27q0 -1 2 -14l2 -12q19 -95 94 -157t173 -62h37h22q16 -1 29 -1h323q8 1 18 1q104 0 156 87q26 43 31 86l1 -1q9 155 15 271q6 111 6 179q0 37 -2 61q-2 45 -36 66q-133 82 -133 274q1 121 61 206q61 86 147 86q85 0 146 -86q60 -86 60 -207 q-1 -92 -39 -167q-37 -72 -96 -107q-34 -21 -38 -65q-2 -23 -2 -62q0 -62 5 -165q5 -115 14 -283q5 -43 31 -86q52 -87 157 -87q10 0 18 -1h528q174 0 262 150q44 74 43.5 149t-43.5 150l-234 401q127 92 200 231q75 143 75 307q0 273 -192 467q-193 193 -464 193 q-25 0 -54 -2h-1053q-113 0 -192 -81q-80 -80 -80 -193v-1467v-32z" />
<glyph unicode="s" horiz-adv-x="1983" d="M120 1244q8 -224 172 -298q35 -16 56 -29q405 -173 442 -181q11 -2 21 -2q34 0 63 23q54 41 94 41q13 0 25 -4l441 -171q18 -7 11 -27q-7 -19 -25 -13l-376 134q-17 6 -23 -12q-7 -19 10 -25l373 -134q20 -7 12 -29q-7 -21 -27 -14l-374 133q-17 6 -23 -13q-7 -18 10 -24 l374 -134q19 -7 11 -29q-7 -21 -27 -14l-374 133q-16 6 -23 -13q-7 -18 10 -24l376 -134q17 -7 10 -27q-7 -19 -25 -13l-449 146q-48 16 -69 105q-11 47 -52 69q-23 13 -265 84q-34 8 -84 25q-40 11 -84 24q-58 14 -100 14q-109 0 -109 -95q3 -34 8 -63q1 -7 5 -25 q3 -14 4 -22q64 -262 301 -433q240 -173 551 -173q361 0 616 224q256 225 256 542v24q-10 149 -107 255q-52 57 -108 84q-189 88 -215 98q-46 17 -80 17q-9 0 -17 -1q-7 -1 -53 -19q-41 -16 -91 -16q-116 0 -277 89q-216 119 -255 208q-15 35 7 47q9 6 23 6q18 0 42 -10 q71 -27 881 -300q48 -14 95 -14l27 1q123 9 123 124q-8 70 -31 140q-4 9 -5 14q-85 236 -311 384q-231 151 -520 151q-361 0 -616 -224q-255 -225 -255 -542v-38z" />
<glyph unicode="t" horiz-adv-x="2286" d="M120 1700q0 -109 78 -187q77 -78 187 -78h278v-1164q0 -105 71 -183q69 -77 172 -88q99 5 149 89q24 43 29 84v-1q28 389 28 470q0 13 -1 18q-6 43 -44 68q-71 46 -69 93l15 438q0 18 20 18q19 -1 19 -18l-2 -370q-1 -17 18 -17q18 0 18 17l3 368q0 19 21 19q22 0 22 -20 l-2 -368q-1 -16 18 -16q18 0 18 16l3 368q0 20 21 20q22 -1 22 -20l-3 -368q0 -17 19 -17q18 0 18 17l3 370q0 17 19 17t20 -18l9 -438q1 -47 -70 -92q-38 -24 -45 -67q-1 -7 -1 -29q0 -94 21 -463q9 -52 38 -93q51 -73 144 -75q94 9 161 76q77 78 77 188v1171h271 q113 0 193 80t80 193v75q0 110 -78 187q-77 78 -187 78h-1516q-110 0 -187 -78q-78 -77 -78 -187v-83z" />
<glyph unicode="u" d="M120 1024q0 -424 300 -724t724 -300t724 300t300 724q0 4 -1 29v721q0 113 -80 194q-80 80 -194 80h-472q-118 -12 -175 -111q-35 -60 -41 -135q-1 -3 -1 -7v-7q-19 -298 -19 -375q0 -17 1 -23q8 -54 56 -85q90 -58 88 -117l-17 -554q-1 -22 -25 -22q-25 0 -25 22l2 468 q0 21 -23 21q-24 0 -24 -21l-1 -465q0 -25 -28 -25q-27 0 -27 25l2 465q0 21 -23 21q-24 0 -24 -21l-1 -465q0 -25 -28 -25q-27 0 -27 25l2 465q0 21 -23 21q-24 0 -24 -21l-1 -467q0 -22 -25 -22q-24 0 -25 22l-13 554q-2 60 89 117q47 30 56 85q1 6 1 24q0 71 -13 323 q-1 3 -1 8q-1 29 -5 87q-24 199 -227 215h-457q-114 0 -194 -80q-80 -81 -80 -194v-721q-1 -25 -1 -29z" />
<glyph unicode="v" horiz-adv-x="2627" d="M208 1595l841 -1444q88 -151 264 -151t264 151l841 1444q44 76 44 151.5t-44 150.5q-87 151 -263 151h-647q-86 -13 -130 -94q-21 -40 -26 -78v2q-9 -153 -16 -273q-5 -116 -5 -185q0 -34 1 -57q3 -45 37 -66q133 -83 133 -276q0 -122 -61 -208q-60 -86 -146 -86h-2 q-86 0 -147 86q-60 87 -60 209q0 92 39 168q37 72 96 108q35 20 39 65q1 23 1 59q0 64 -4 169q-6 124 -15 285q-4 38 -26 78q-43 81 -129 94h-615q-176 0 -264 -151q-44 -76 -44 -151t44 -151z" />
<glyph unicode="w" horiz-adv-x="4034" d="M209 1596l848 -1444q88 -151 266 -151q177 0 266 151l427 728l428 -728q90 -152 266 -152q177 0 266 152l848 1444q44 75 44 150.5t-44 150.5q-88 151 -265 151h-594q-107 0 -159 -88q-26 -44 -31 -88l-1 1q-28 -396 -28 -478q0 -13 1 -18q7 -43 45 -68q72 -47 70 -95 l-15 -445q0 -18 -20 -18q-20 1 -20 18l3 376q0 17 -19 17t-19 -17l-2 -373q0 -20 -22 -20t-22 20l2 374q1 17 -18 17t-19 -17l-2 -374q0 -20 -22 -20q-22 1 -22 20l2 374q0 17 -18 17q-19 0 -19 -17l-2 -375q-1 -18 -20 -18q-20 0 -20 18l-10 445q-1 48 72 94q38 24 45 68 q1 7 1 28q0 94 -22 471q-9 54 -39 96q-52 75 -150 75h-893q-107 0 -159 -88q-26 -44 -31 -88l-1 2q-9 -158 -15 -275q-6 -122 -6 -192q0 -31 1 -52q3 -46 37 -67q134 -83 134 -275q0 -126 -61 -213q-62 -87 -149 -87q-87 1 -148 88t-61 210q0 93 39 170q38 72 97 108 q36 21 39 66q2 24 2 63q0 63 -5 167q-5 121 -14 287q-6 44 -32 88q-52 88 -159 88h-606q-177 0 -265 -151q-44 -76 -44 -151t44 -150z" />
<glyph unicode="x" horiz-adv-x="2620" d="M208 150q87 -150 263 -150h809q69 20 85 78q5 17 5 37q0 67 -57 163q-476 777 -518 841q-23 35 -23 60q0 7 2 13q9 28 52 19q111 -21 303 -236q181 -203 181 -361q0 -20 -3 -39q-7 -51 -7 -63q0 -42 43 -109q16 -25 142 -188q143 -175 339 -215h325q176 0 263 150 q44 75 44 150t-44 150q-128 232 -325 570q195 332 325 578q44 75 44 150t-44 150q-87 150 -263 150h-687q-86 -8 -116 -64q-13 -25 -13 -57q0 -67 57 -165q476 -777 517 -840q23 -35 23 -60q0 -7 -2 -13q-8 -28 -52 -20q-111 22 -303 237q-181 203 -181 361q0 20 3 39 q8 51 8 64q0 42 -44 108q-15 24 -142 187q-163 202 -388 223h-358q-176 0 -263 -150q-44 -75 -44 -150t44 -150q129 -232 325 -570q-195 -332 -325 -578q-44 -75 -44 -150t44 -150z" />
<glyph unicode="y" horiz-adv-x="2575" d="M167 1748v-7q0 -79 41 -150l119 -205q100 -175 206 -358q-195 -332 -325 -578q-44 -75 -44 -150t44 -150q87 -150 263 -150l815 1q12 -1 24 -1q72 0 137 32q80 40 126 119l839 1440q41 71 41 150v7q0 121 -85 209q-89 91 -219 91h-52q-212 -17 -380 -213q-26 -34 -46 -59 q-173 -222 -192 -251q-40 -62 -44 -107q0 -8 8 -65q3 -19 3 -40q0 -158 -181 -360q-192 -216 -303 -237q-43 -8 -52 19q-2 6 -2 14q0 25 23 60q50 75 576 934l-3 -2q72 114 72 188q0 35 -16 61q-36 58 -130 58h-959q-130 0 -219 -91q-85 -88 -85 -209z" />
<glyph unicode="z" horiz-adv-x="2327" d="M151 984q9 -77 49 -117q25 -24 57 -24q74 0 188 128q125 163 137 186q13 26 13 52q0 24 -11 49q-22 53 -22 92q0 33 16 55l329 447q13 18 33 4q21 -14 8 -32l-267 -385q-12 -17 7 -30q19 -14 31 4l266 382q14 20 36 5q23 -16 9 -36l-266 -383q-12 -17 7 -30t31 4l266 382 q14 21 36 5q23 -16 9 -36l-266 -382q-12 -17 7 -31q19 -13 31 4l267 385q13 18 33 4t8 -33l-304 -464q-30 -46 -124 -46h-15h-5q-53 0 -90 -38q-39 -42 -400 -643q-73 -139 -73 -240q0 -85 52 -144q80 -78 192 -78h1499q114 0 194 80q80 81 80 194v972q-1 72 -28 95 q-11 9 -25 9q-46 0 -128 -102q-109 -140 -123 -162q-44 -67 -44 -108q0 -13 8 -65q3 -19 3 -39q0 -158 -182 -362q-193 -216 -304 -238q-44 -8 -53 20q-2 6 -2 12q0 24 24 61q78 119 703 1144h-1q1 1 2 3l3 3q56 93 100 166q32 73 32 136q0 46 -18 86q-78 143 -241 143 h-1499q-114 0 -194 -80q-81 -81 -81 -194v-790z" />
<glyph unicode="&#x2000;" horiz-adv-x="1025" />
<glyph unicode="&#x2001;" horiz-adv-x="2050" />
<glyph unicode="&#x2002;" horiz-adv-x="1025" />
<glyph unicode="&#x2003;" horiz-adv-x="2050" />
<glyph unicode="&#x2004;" horiz-adv-x="683" />
<glyph unicode="&#x2005;" horiz-adv-x="512" />
<glyph unicode="&#x2006;" horiz-adv-x="341" />
<glyph unicode="&#x2007;" horiz-adv-x="341" />
<glyph unicode="&#x2008;" horiz-adv-x="256" />
<glyph unicode="&#x2009;" horiz-adv-x="410" />
<glyph unicode="&#x200a;" horiz-adv-x="113" />
<glyph unicode="&#x202f;" horiz-adv-x="410" />
<glyph unicode="&#x205f;" horiz-adv-x="512" />
<glyph unicode="&#x25fc;" horiz-adv-x="2050" d="M0 0v2050h2050v-2050h-2050z" />
</font>
</defs>
</svg>
